<svg xmlns="http://www.w3.org/2000/svg" xmlns:xlink="http://www.w3.org/1999/xlink" xml:space="preserve" version="1.1" style="shape-rendering:geometricPrecision;text-rendering:geometricPrecision;image-rendering:optimizeQuality;" viewBox="0 0 201 330" x="0px" y="0px" fill-rule="evenodd" clip-rule="evenodd"><defs><style type="text/css">
   
    .fil0 {fill:black;fill-rule:nonzero}
    .fil1 {fill:black;fill-rule:nonzero}
   
  </style></defs><g><path class="fil0" d="M181 103c0,-13 20,-13 20,0l0 15c0,51 -39,95 -90,100l0 36c0,13 -20,13 -20,0l0 -36c-51,-5 -91,-49 -91,-100l0 -15c0,-13 20,-13 20,0l0 15c0,44 36,80 81,80 44,0 80,-36 80,-80l0 -15z"/><path class="fil1" d="M101 0c30,0 55,25 55,55l0 63c0,30 -25,55 -55,55 -31,0 -56,-25 -56,-55l0 -63c0,-30 25,-55 56,-55zm0 20c-20,0 -36,16 -36,35l0 63c0,19 16,35 36,35 19,0 35,-16 35,-35l0 -63c0,-19 -16,-35 -35,-35z"/></g><text x="0" y="279" fill="#000000" font-size="5px" font-weight="bold" font-family="'Helvetica Neue', Helvetica, Arial-Unicode, Arial, Sans-serif">Created by Saifurrijal</text><text x="0" y="284" fill="#000000" font-size="5px" font-weight="bold" font-family="'Helvetica Neue', Helvetica, Arial-Unicode, Arial, Sans-serif">from the Noun Project</text></svg>